<svg xmlns="http://www.w3.org/2000/svg" xmlns:xlink="http://www.w3.org/1999/xlink" width="3000" zoomAndPan="magnify" viewBox="0 0 2250 749.999995" height="1000" preserveAspectRatio="xMidYMid meet" version="1.0"><defs><g/><clipPath id="aaa4e9f399"><path d="M 1134 299.371094 L 1145 299.371094 L 1145 310 L 1134 310 Z M 1134 299.371094 " clip-rule="nonzero"/></clipPath><clipPath id="982677ecfd"><path d="M 1021.65625 415 L 1032 415 L 1032 426 L 1021.65625 426 Z M 1021.65625 415 " clip-rule="nonzero"/></clipPath><clipPath id="26d0a2e74b"><path d="M 1134 529 L 1145 529 L 1145 539.371094 L 1134 539.371094 Z M 1134 529 " clip-rule="nonzero"/></clipPath><clipPath id="b2b7d24204"><path d="M 331 452 L 531 452 L 531 584 L 331 584 Z M 331 452 " clip-rule="nonzero"/></clipPath><clipPath id="d6c41891a2"><path d="M 331.371094 569.730469 L 521.703125 452.570312 L 530.351562 466.621094 L 340.019531 583.78125 Z M 331.371094 569.730469 " clip-rule="nonzero"/></clipPath><clipPath id="fc8c3920b5"><path d="M 197.289062 600.09375 L 408.8125 203.757812 L 625.179688 319.230469 L 413.652344 715.566406 Z M 197.289062 600.09375 " clip-rule="nonzero"/></clipPath></defs><g fill="#ffffff" fill-opacity="1"><g transform="translate(397.690375, 523.49434)"><g><path d="M 123.28125 -228.015625 C 203.050781 -228.015625 242.9375 -190.015625 242.9375 -114.015625 C 242.9375 -38.003906 203.050781 0 123.28125 0 L 24.53125 0 L 24.53125 -228.015625 Z M 97.765625 -54.6875 L 121.96875 -54.6875 C 152.675781 -54.6875 168.03125 -71.144531 168.03125 -104.0625 L 168.03125 -123.953125 C 168.03125 -156.867188 152.675781 -173.328125 121.96875 -173.328125 L 97.765625 -173.328125 Z M 97.765625 -54.6875 "/></g></g></g><g fill="#ffffff" fill-opacity="1"><g transform="translate(655.532757, 523.49434)"><g><path d="M 85.84375 -156.765625 C 92.90625 -163.835938 101.1875 -169.304688 110.6875 -173.171875 C 120.195312 -177.035156 130.140625 -178.96875 140.515625 -178.96875 C 160.847656 -178.96875 176.09375 -173.332031 186.25 -162.0625 C 196.414062 -150.789062 201.5 -134.550781 201.5 -113.34375 L 201.5 0 L 135.546875 0 L 135.546875 -105.390625 C 135.546875 -112.898438 133.613281 -118.921875 129.75 -123.453125 C 125.882812 -127.984375 120.414062 -130.25 113.34375 -130.25 C 105.164062 -130.25 98.535156 -127.597656 93.453125 -122.296875 C 88.378906 -116.992188 85.84375 -110.472656 85.84375 -102.734375 L 85.84375 0 L 19.890625 0 L 19.890625 -240.28125 L 85.84375 -240.28125 Z M 85.84375 -156.765625 "/></g></g></g><g fill="#ffffff" fill-opacity="1"><g transform="translate(876.587874, 523.49434)"><g><path d="M 126.265625 -179.296875 C 131.347656 -179.296875 135.878906 -178.6875 139.859375 -177.46875 C 143.835938 -176.257812 145.828125 -175.546875 145.828125 -175.328125 L 145.828125 -119.96875 L 124.609375 -119.96875 C 110.910156 -119.96875 101.023438 -116.429688 94.953125 -109.359375 C 88.878906 -102.296875 85.84375 -91.804688 85.84375 -77.890625 L 85.84375 0 L 19.890625 0 L 19.890625 -174.984375 L 73.90625 -174.984375 L 78.21875 -148.484375 C 82.195312 -158.640625 88.492188 -166.3125 97.109375 -171.5 C 105.722656 -176.695312 115.441406 -179.296875 126.265625 -179.296875 Z M 126.265625 -179.296875 "/></g></g></g><g fill="#2c162d" fill-opacity="1"><g transform="translate(1023.741129, 523.49434)"><g/></g></g><g fill="#2c162d" fill-opacity="1"><g transform="translate(1134.102978, 523.49434)"><g/></g></g><g fill="#ffffff" fill-opacity="1"><g transform="translate(1244.475494, 523.49434)"><g><path d="M 140.515625 -178.96875 C 160.847656 -178.96875 176.09375 -173.332031 186.25 -162.0625 C 196.414062 -150.789062 201.5 -134.550781 201.5 -113.34375 L 201.5 0 L 135.546875 0 L 135.546875 -105.390625 C 135.546875 -112.898438 133.613281 -118.921875 129.75 -123.453125 C 125.882812 -127.984375 120.414062 -130.25 113.34375 -130.25 C 105.164062 -130.25 98.535156 -127.597656 93.453125 -122.296875 C 88.378906 -116.992188 85.84375 -110.472656 85.84375 -102.734375 L 85.84375 0 L 19.890625 0 L 19.890625 -174.984375 L 73.90625 -174.984375 L 78.21875 -148.484375 C 85.0625 -157.753906 94.0625 -165.148438 105.21875 -170.671875 C 116.382812 -176.203125 128.148438 -178.96875 140.515625 -178.96875 Z M 140.515625 -178.96875 "/></g></g></g><g fill="#52d1a2" fill-opacity="1"><g transform="translate(1465.53796, 523.49434)"><g><path d="M 177.3125 0 L 167.703125 -32.140625 L 87.828125 -32.140625 L 78.21875 0 L 3.3125 0 L 86.5 -228.015625 L 171.671875 -228.015625 L 254.859375 0 Z M 103.078125 -83.1875 L 152.453125 -83.1875 L 128.59375 -164.390625 L 127.265625 -164.390625 Z M 103.078125 -83.1875 "/></g></g></g><g fill="#52d1a2" fill-opacity="1"><g transform="translate(1723.380343, 523.49434)"><g><path d="M 27.84375 0 L 27.84375 -228.015625 L 101.078125 -228.015625 L 101.078125 0 Z M 27.84375 0 "/></g></g></g><path fill="#0a335d" d="M 1125.933594 316.128906 L 1122.03125 316.664062 L 1122.070312 316.660156 L 1118.195312 317.339844 L 1118.234375 317.332031 L 1114.382812 318.160156 L 1114.421875 318.152344 L 1110.605469 319.125 L 1110.644531 319.113281 L 1106.871094 320.226562 L 1106.90625 320.214844 L 1103.175781 321.472656 L 1103.214844 321.457031 L 1099.53125 322.855469 L 1099.570312 322.839844 L 1095.980469 324.355469 L 1096.015625 324.339844 L 1092.488281 325.988281 L 1092.523438 325.972656 L 1089.058594 327.75 L 1089.09375 327.730469 L 1085.695312 329.640625 L 1085.730469 329.621094 L 1082.40625 331.652344 L 1082.441406 331.632812 L 1079.195312 333.785156 L 1079.226562 333.765625 L 1076.0625 336.039062 C 1075.585938 336.382812 1074.921875 336.273438 1074.578125 335.796875 C 1074.234375 335.316406 1074.34375 334.652344 1074.820312 334.308594 L 1077.984375 332.035156 C 1077.992188 332.027344 1078.003906 332.019531 1078.015625 332.011719 L 1081.261719 329.855469 C 1081.273438 329.847656 1081.285156 329.84375 1081.292969 329.835938 L 1084.617188 327.800781 C 1084.628906 327.796875 1084.640625 327.789062 1084.652344 327.78125 L 1088.050781 325.875 C 1088.0625 325.867188 1088.074219 325.863281 1088.085938 325.855469 L 1091.550781 324.078125 C 1091.5625 324.070312 1091.574219 324.0625 1091.585938 324.058594 L 1095.113281 322.410156 C 1095.128906 322.402344 1095.140625 322.398438 1095.152344 322.394531 L 1098.738281 320.875 C 1098.753906 320.871094 1098.765625 320.867188 1098.777344 320.863281 L 1102.457031 319.464844 C 1102.472656 319.460938 1102.484375 319.457031 1102.496094 319.453125 L 1106.226562 318.195312 C 1106.242188 318.191406 1106.253906 318.1875 1106.265625 318.183594 L 1110.042969 317.070312 C 1110.054688 317.066406 1110.070312 317.0625 1110.082031 317.058594 L 1113.898438 316.085938 C 1113.910156 316.082031 1113.921875 316.082031 1113.9375 316.078125 L 1117.785156 315.25 C 1117.800781 315.246094 1117.8125 315.246094 1117.824219 315.242188 L 1121.703125 314.5625 C 1121.714844 314.558594 1121.730469 314.558594 1121.742188 314.554688 L 1125.644531 314.019531 C 1126.226562 313.941406 1126.765625 314.347656 1126.84375 314.929688 C 1126.925781 315.511719 1126.515625 316.050781 1125.933594 316.128906 Z M 1125.933594 316.128906 " fill-opacity="1" fill-rule="nonzero"/><path fill="#0a335d" d="M 1057.742188 355.800781 L 1055.226562 359.144531 L 1055.253906 359.105469 L 1052.875 362.550781 L 1052.898438 362.511719 L 1050.667969 366.050781 L 1050.691406 366.011719 L 1048.605469 369.636719 L 1048.625 369.597656 L 1046.691406 373.308594 L 1046.710938 373.269531 L 1044.933594 377.054688 L 1044.953125 377.015625 L 1043.332031 380.871094 L 1043.347656 380.828125 L 1041.886719 384.75 L 1041.898438 384.710938 L 1040.601562 388.6875 L 1040.613281 388.648438 L 1039.480469 392.675781 L 1039.492188 392.632812 L 1038.527344 396.707031 L 1038.535156 396.664062 L 1037.738281 400.773438 L 1037.746094 400.726562 L 1037.121094 404.867188 L 1037.125 404.824219 L 1036.671875 408.984375 C 1036.605469 409.566406 1036.082031 409.988281 1035.496094 409.925781 C 1034.910156 409.863281 1034.488281 409.335938 1034.554688 408.75 L 1035.007812 404.589844 C 1035.011719 404.578125 1035.011719 404.5625 1035.015625 404.546875 L 1035.640625 400.410156 C 1035.644531 400.394531 1035.644531 400.378906 1035.648438 400.367188 L 1036.445312 396.257812 C 1036.449219 396.242188 1036.449219 396.230469 1036.453125 396.214844 L 1037.417969 392.140625 C 1037.421875 392.128906 1037.425781 392.113281 1037.429688 392.097656 L 1038.5625 388.070312 C 1038.566406 388.054688 1038.570312 388.042969 1038.578125 388.027344 L 1039.875 384.050781 C 1039.878906 384.035156 1039.882812 384.023438 1039.890625 384.007812 L 1041.351562 380.085938 C 1041.355469 380.070312 1041.359375 380.058594 1041.367188 380.046875 L 1042.988281 376.1875 C 1042.992188 376.175781 1043 376.164062 1043.003906 376.148438 L 1044.785156 372.363281 C 1044.789062 372.351562 1044.796875 372.335938 1044.804688 372.324219 L 1046.738281 368.613281 C 1046.742188 368.601562 1046.75 368.589844 1046.757812 368.578125 L 1048.84375 364.949219 C 1048.851562 364.9375 1048.859375 364.925781 1048.867188 364.914062 L 1051.097656 361.375 C 1051.105469 361.363281 1051.113281 361.351562 1051.121094 361.339844 L 1053.5 357.898438 C 1053.507812 357.882812 1053.515625 357.871094 1053.523438 357.859375 L 1056.042969 354.519531 C 1056.394531 354.050781 1057.0625 353.957031 1057.53125 354.308594 C 1058.003906 354.664062 1058.097656 355.332031 1057.742188 355.800781 Z M 1057.742188 355.800781 " fill-opacity="1" fill-rule="nonzero"/><path fill="#52d1a2" d="M 1037.042969 431.207031 L 1037.632812 435.28125 L 1037.628906 435.246094 L 1038.363281 439.296875 L 1038.355469 439.261719 L 1039.234375 443.285156 L 1039.226562 443.25 L 1040.246094 447.238281 L 1040.234375 447.203125 L 1041.398438 451.15625 L 1041.386719 451.117188 L 1042.6875 455.027344 L 1042.675781 454.992188 L 1044.113281 458.851562 L 1044.097656 458.816406 L 1045.644531 462.554688 L 1045.628906 462.519531 L 1047.304688 466.199219 L 1047.289062 466.167969 L 1049.089844 469.789062 L 1049.074219 469.753906 L 1051 473.308594 L 1050.980469 473.277344 L 1053.03125 476.765625 L 1053.011719 476.730469 L 1055.183594 480.144531 L 1055.160156 480.113281 L 1057.449219 483.449219 C 1057.78125 483.933594 1057.660156 484.597656 1057.171875 484.929688 C 1056.6875 485.261719 1056.023438 485.140625 1055.691406 484.652344 L 1053.40625 481.320312 C 1053.398438 481.308594 1053.390625 481.296875 1053.382812 481.289062 L 1051.214844 477.875 C 1051.207031 477.863281 1051.203125 477.855469 1051.195312 477.84375 L 1049.144531 474.355469 C 1049.140625 474.347656 1049.132812 474.335938 1049.128906 474.324219 L 1047.199219 470.769531 C 1047.195312 470.757812 1047.1875 470.746094 1047.183594 470.738281 L 1045.382812 467.117188 C 1045.375 467.105469 1045.371094 467.09375 1045.367188 467.082031 L 1043.691406 463.402344 C 1043.6875 463.390625 1043.679688 463.378906 1043.675781 463.367188 L 1042.132812 459.628906 C 1042.125 459.617188 1042.121094 459.605469 1042.117188 459.59375 L 1040.679688 455.734375 C 1040.671875 455.722656 1040.667969 455.710938 1040.664062 455.699219 L 1039.363281 451.792969 C 1039.359375 451.78125 1039.355469 451.769531 1039.351562 451.757812 L 1038.191406 447.804688 C 1038.1875 447.792969 1038.183594 447.78125 1038.179688 447.765625 L 1037.160156 443.777344 C 1037.15625 443.765625 1037.15625 443.753906 1037.152344 443.738281 L 1036.273438 439.714844 C 1036.269531 439.703125 1036.269531 439.691406 1036.265625 439.679688 L 1035.53125 435.625 C 1035.53125 435.613281 1035.527344 435.601562 1035.527344 435.589844 L 1034.933594 431.511719 C 1034.851562 430.929688 1035.253906 430.390625 1035.835938 430.304688 C 1036.417969 430.222656 1036.960938 430.625 1037.042969 431.207031 Z M 1037.042969 431.207031 " fill-opacity="1" fill-rule="nonzero"/><path fill="#52d1a2" d="M 1202.167969 336.222656 L 1199.035156 333.910156 L 1199.066406 333.933594 L 1195.847656 331.742188 L 1195.882812 331.761719 L 1192.582031 329.695312 L 1192.617188 329.714844 L 1189.242188 327.769531 L 1189.277344 327.789062 L 1185.832031 325.972656 L 1185.867188 325.988281 L 1182.355469 324.304688 L 1182.394531 324.320312 L 1178.820312 322.765625 L 1178.859375 322.78125 L 1175.226562 321.363281 L 1175.265625 321.375 L 1171.582031 320.09375 L 1171.621094 320.105469 L 1167.890625 318.960938 L 1167.929688 318.972656 L 1164.160156 317.972656 L 1164.199219 317.980469 L 1160.394531 317.121094 L 1160.433594 317.128906 L 1156.601562 316.414062 L 1156.640625 316.417969 L 1152.785156 315.847656 C 1152.203125 315.761719 1151.800781 315.21875 1151.886719 314.636719 C 1151.972656 314.054688 1152.515625 313.652344 1153.097656 313.738281 L 1156.953125 314.3125 C 1156.96875 314.3125 1156.980469 314.316406 1156.992188 314.316406 L 1160.828125 315.035156 C 1160.839844 315.039062 1160.851562 315.039062 1160.867188 315.042969 L 1164.667969 315.902344 C 1164.683594 315.90625 1164.695312 315.910156 1164.707031 315.914062 L 1168.476562 316.914062 C 1168.488281 316.917969 1168.503906 316.921875 1168.515625 316.925781 L 1172.242188 318.070312 C 1172.257812 318.074219 1172.269531 318.078125 1172.28125 318.082031 L 1175.964844 319.363281 C 1175.976562 319.367188 1175.988281 319.371094 1176.003906 319.378906 L 1179.632812 320.796875 C 1179.644531 320.800781 1179.660156 320.808594 1179.671875 320.8125 L 1183.242188 322.367188 C 1183.253906 322.371094 1183.265625 322.375 1183.277344 322.382812 L 1186.789062 324.070312 C 1186.800781 324.074219 1186.8125 324.082031 1186.824219 324.085938 L 1190.269531 325.902344 C 1190.28125 325.910156 1190.292969 325.917969 1190.304688 325.921875 L 1193.679688 327.867188 C 1193.691406 327.875 1193.703125 327.882812 1193.714844 327.890625 L 1197.015625 329.960938 C 1197.023438 329.964844 1197.035156 329.972656 1197.046875 329.980469 L 1200.265625 332.171875 C 1200.277344 332.179688 1200.289062 332.1875 1200.300781 332.195312 L 1203.433594 334.507812 C 1203.90625 334.859375 1204.007812 335.523438 1203.660156 336 C 1203.308594 336.472656 1202.640625 336.574219 1202.167969 336.222656 Z M 1202.167969 336.222656 " fill-opacity="1" fill-rule="nonzero"/><path fill="#0e086f" d="M 1075.96875 502.84375 L 1079.09375 505.152344 L 1079.0625 505.128906 L 1082.269531 507.316406 L 1082.238281 507.296875 L 1085.523438 509.363281 L 1085.492188 509.34375 L 1088.851562 511.289062 L 1088.820312 511.269531 L 1092.25 513.089844 L 1092.214844 513.074219 L 1095.710938 514.761719 L 1095.675781 514.746094 L 1099.234375 516.308594 L 1099.195312 516.292969 L 1102.886719 517.746094 L 1102.847656 517.734375 L 1106.589844 519.046875 L 1106.550781 519.035156 L 1110.339844 520.207031 L 1110.300781 520.195312 L 1114.132812 521.222656 L 1114.09375 521.214844 L 1117.960938 522.09375 L 1117.917969 522.085938 L 1121.816406 522.820312 L 1121.777344 522.816406 L 1125.699219 523.402344 C 1126.28125 523.488281 1126.683594 524.03125 1126.59375 524.613281 C 1126.507812 525.195312 1125.964844 525.59375 1125.382812 525.507812 L 1121.460938 524.921875 C 1121.449219 524.917969 1121.4375 524.917969 1121.421875 524.914062 L 1117.523438 524.179688 C 1117.511719 524.179688 1117.5 524.175781 1117.484375 524.171875 L 1113.617188 523.289062 C 1113.605469 523.289062 1113.59375 523.285156 1113.578125 523.28125 L 1109.75 522.253906 C 1109.738281 522.25 1109.722656 522.246094 1109.710938 522.242188 L 1105.921875 521.070312 C 1105.910156 521.066406 1105.894531 521.0625 1105.882812 521.058594 L 1102.140625 519.742188 C 1102.128906 519.738281 1102.117188 519.734375 1102.105469 519.730469 L 1098.414062 518.273438 C 1098.402344 518.269531 1098.390625 518.261719 1098.378906 518.257812 L 1094.820312 516.699219 C 1094.808594 516.691406 1094.796875 516.6875 1094.785156 516.679688 L 1091.289062 514.992188 C 1091.277344 514.984375 1091.265625 514.980469 1091.253906 514.972656 L 1087.820312 513.152344 C 1087.808594 513.148438 1087.796875 513.140625 1087.785156 513.132812 L 1084.425781 511.1875 C 1084.414062 511.179688 1084.402344 511.175781 1084.390625 511.167969 L 1081.101562 509.097656 C 1081.09375 509.089844 1081.082031 509.085938 1081.070312 509.078125 L 1077.863281 506.886719 C 1077.851562 506.878906 1077.839844 506.871094 1077.828125 506.863281 L 1074.703125 504.558594 C 1074.230469 504.207031 1074.132812 503.539062 1074.480469 503.066406 C 1074.828125 502.59375 1075.496094 502.492188 1075.96875 502.84375 Z M 1075.96875 502.84375 " fill-opacity="1" fill-rule="nonzero"/><path fill="#0e086f" d="M 1152.449219 523.296875 L 1156.339844 522.710938 L 1156.304688 522.71875 L 1160.171875 521.992188 L 1160.136719 522 L 1163.976562 521.132812 L 1163.9375 521.140625 L 1167.746094 520.136719 L 1167.707031 520.148438 L 1171.476562 519.007812 L 1171.441406 519.019531 L 1175.164062 517.742188 L 1175.128906 517.753906 L 1178.804688 516.34375 L 1178.769531 516.359375 L 1182.367188 514.828125 L 1182.332031 514.84375 L 1185.875 513.183594 L 1185.839844 513.203125 L 1189.320312 511.417969 L 1189.285156 511.433594 L 1192.699219 509.523438 L 1192.667969 509.542969 L 1196.007812 507.515625 L 1195.976562 507.535156 L 1199.242188 505.386719 L 1199.210938 505.40625 L 1202.398438 503.140625 C 1202.878906 502.800781 1203.542969 502.914062 1203.886719 503.394531 C 1204.226562 503.875 1204.113281 504.539062 1203.632812 504.878906 L 1200.445312 507.144531 C 1200.433594 507.152344 1200.425781 507.160156 1200.414062 507.164062 L 1197.148438 509.3125 C 1197.136719 509.320312 1197.125 509.328125 1197.113281 509.335938 L 1193.773438 511.363281 C 1193.761719 511.371094 1193.75 511.378906 1193.738281 511.382812 L 1190.324219 513.292969 C 1190.316406 513.300781 1190.304688 513.304688 1190.292969 513.3125 L 1186.8125 515.097656 C 1186.800781 515.101562 1186.789062 515.109375 1186.777344 515.113281 L 1183.238281 516.773438 C 1183.226562 516.777344 1183.214844 516.785156 1183.203125 516.789062 L 1179.601562 518.320312 C 1179.589844 518.324219 1179.578125 518.328125 1179.566406 518.335938 L 1175.890625 519.746094 C 1175.878906 519.75 1175.867188 519.753906 1175.855469 519.757812 L 1172.132812 521.035156 C 1172.117188 521.039062 1172.105469 521.042969 1172.09375 521.046875 L 1168.324219 522.1875 C 1168.3125 522.191406 1168.300781 522.195312 1168.289062 522.199219 L 1164.480469 523.203125 C 1164.46875 523.203125 1164.457031 523.207031 1164.445312 523.210938 L 1160.601562 524.078125 C 1160.589844 524.078125 1160.578125 524.082031 1160.566406 524.085938 L 1156.695312 524.8125 C 1156.683594 524.8125 1156.671875 524.816406 1156.65625 524.816406 L 1152.765625 525.402344 C 1152.183594 525.492188 1151.640625 525.089844 1151.550781 524.507812 C 1151.464844 523.925781 1151.867188 523.386719 1152.449219 523.296875 Z M 1152.449219 523.296875 " fill-opacity="1" fill-rule="nonzero"/><path fill="#0a335d" d="M 1221.550781 482.785156 L 1223.816406 479.46875 L 1223.792969 479.503906 L 1225.9375 476.109375 L 1225.917969 476.140625 L 1227.933594 472.671875 L 1227.914062 472.703125 L 1229.804688 469.160156 L 1229.785156 469.195312 L 1231.542969 465.589844 L 1231.527344 465.625 L 1233.152344 461.953125 L 1233.136719 461.988281 L 1234.628906 458.261719 L 1234.617188 458.296875 L 1235.96875 454.515625 L 1235.957031 454.554688 L 1237.171875 450.726562 L 1237.160156 450.765625 L 1238.234375 446.894531 L 1238.226562 446.933594 L 1239.160156 443.027344 L 1239.148438 443.066406 L 1239.941406 439.128906 L 1239.933594 439.167969 L 1240.578125 435.203125 L 1240.574219 435.242188 L 1241.074219 431.257812 C 1241.144531 430.675781 1241.679688 430.261719 1242.261719 430.335938 C 1242.847656 430.40625 1243.257812 430.941406 1243.1875 431.523438 L 1242.6875 435.507812 C 1242.683594 435.519531 1242.683594 435.535156 1242.679688 435.546875 L 1242.035156 439.511719 C 1242.035156 439.523438 1242.03125 439.535156 1242.027344 439.546875 L 1241.238281 443.484375 C 1241.234375 443.496094 1241.234375 443.511719 1241.230469 443.523438 L 1240.296875 447.429688 C 1240.292969 447.441406 1240.292969 447.453125 1240.289062 447.464844 L 1239.214844 451.335938 C 1239.210938 451.347656 1239.207031 451.359375 1239.203125 451.371094 L 1237.988281 455.199219 C 1237.984375 455.210938 1237.980469 455.222656 1237.976562 455.234375 L 1236.621094 459.015625 C 1236.617188 459.027344 1236.613281 459.039062 1236.605469 459.050781 L 1235.117188 462.78125 C 1235.113281 462.792969 1235.105469 462.804688 1235.101562 462.816406 L 1233.476562 466.484375 C 1233.46875 466.496094 1233.464844 466.507812 1233.460938 466.519531 L 1231.699219 470.128906 C 1231.695312 470.140625 1231.6875 470.152344 1231.683594 470.164062 L 1229.792969 473.707031 C 1229.789062 473.71875 1229.78125 473.730469 1229.773438 473.742188 L 1227.757812 477.210938 C 1227.75 477.222656 1227.746094 477.234375 1227.738281 477.246094 L 1225.59375 480.640625 C 1225.589844 480.652344 1225.582031 480.660156 1225.574219 480.671875 L 1223.308594 483.988281 C 1222.976562 484.472656 1222.316406 484.597656 1221.828125 484.265625 C 1221.34375 483.933594 1221.21875 483.269531 1221.550781 482.785156 Z M 1221.550781 482.785156 " fill-opacity="1" fill-rule="nonzero"/><path fill="#0a335d" d="M 1241.46875 408.40625 L 1241.054688 404.234375 L 1241.0625 404.277344 L 1240.476562 400.125 L 1240.484375 400.167969 L 1239.726562 396.042969 L 1239.734375 396.085938 L 1238.808594 391.996094 L 1238.816406 392.039062 L 1237.722656 387.992188 L 1237.734375 388.035156 L 1236.472656 384.035156 L 1236.484375 384.078125 L 1235.058594 380.132812 L 1235.074219 380.175781 L 1233.519531 376.378906 L 1233.535156 376.417969 L 1231.828125 372.6875 L 1231.847656 372.726562 L 1229.992188 369.066406 L 1230.011719 369.105469 L 1228.007812 365.523438 L 1228.03125 365.5625 L 1225.882812 362.066406 L 1225.90625 362.101562 L 1223.621094 358.695312 L 1223.644531 358.730469 L 1221.222656 355.421875 C 1220.875 354.945312 1220.976562 354.28125 1221.449219 353.933594 C 1221.925781 353.585938 1222.59375 353.6875 1222.941406 354.164062 L 1225.363281 357.472656 C 1225.371094 357.484375 1225.378906 357.496094 1225.386719 357.507812 L 1227.675781 360.914062 C 1227.683594 360.925781 1227.691406 360.9375 1227.699219 360.953125 L 1229.84375 364.445312 C 1229.851562 364.460938 1229.859375 364.472656 1229.867188 364.484375 L 1231.871094 368.066406 C 1231.878906 368.078125 1231.886719 368.089844 1231.890625 368.101562 L 1233.746094 371.761719 C 1233.753906 371.773438 1233.761719 371.785156 1233.765625 371.800781 L 1235.472656 375.53125 C 1235.480469 375.542969 1235.484375 375.558594 1235.492188 375.570312 L 1237.042969 379.367188 C 1237.050781 379.378906 1237.054688 379.394531 1237.058594 379.40625 L 1238.488281 383.351562 C 1238.492188 383.363281 1238.496094 383.378906 1238.503906 383.394531 L 1239.765625 387.390625 C 1239.769531 387.40625 1239.773438 387.421875 1239.777344 387.433594 L 1240.875 391.484375 C 1240.878906 391.496094 1240.882812 391.511719 1240.886719 391.527344 L 1241.8125 395.617188 C 1241.816406 395.628906 1241.820312 395.644531 1241.820312 395.660156 L 1242.578125 399.785156 C 1242.582031 399.796875 1242.582031 399.8125 1242.585938 399.828125 L 1243.171875 403.980469 C 1243.171875 403.996094 1243.175781 404.007812 1243.175781 404.023438 L 1243.589844 408.199219 C 1243.648438 408.78125 1243.21875 409.304688 1242.632812 409.363281 C 1242.046875 409.421875 1241.527344 408.992188 1241.46875 408.40625 Z M 1241.46875 408.40625 " fill-opacity="1" fill-rule="nonzero"/><path fill="#52d1a2" d="M 1140.308594 309.257812 L 1140.277344 331.378906 C 1140.277344 331.96875 1139.800781 332.445312 1139.210938 332.445312 C 1138.621094 332.441406 1138.148438 331.964844 1138.148438 331.375 L 1138.179688 309.253906 C 1138.179688 308.667969 1138.65625 308.191406 1139.246094 308.191406 C 1139.832031 308.191406 1140.308594 308.671875 1140.308594 309.257812 Z M 1140.308594 309.257812 " fill-opacity="1" fill-rule="nonzero"/><g clip-path="url(#aaa4e9f399)"><path fill="#52d1a2" d="M 1144.28125 304.339844 L 1144.234375 305.007812 C 1144.023438 306.347656 1143.402344 307.421875 1142.371094 308.226562 C 1141.332031 309.027344 1140.113281 309.355469 1138.707031 309.203125 C 1137.363281 308.992188 1136.292969 308.371094 1135.488281 307.339844 C 1135.230469 307.007812 1135.015625 306.644531 1134.851562 306.25 L 1134.640625 305.644531 C 1134.523438 305.226562 1134.464844 304.792969 1134.464844 304.339844 C 1134.5 302.949219 1134.976562 301.792969 1135.902344 300.871094 C 1136.824219 299.945312 1137.980469 299.46875 1139.371094 299.433594 C 1140.761719 299.46875 1141.917969 299.945312 1142.84375 300.871094 C 1143.765625 301.792969 1144.246094 302.949219 1144.28125 304.339844 " fill-opacity="1" fill-rule="nonzero"/></g><path fill="#52d1a2" d="M 1061.585938 340.179688 L 1077.222656 355.824219 C 1077.640625 356.242188 1077.640625 356.914062 1077.222656 357.332031 C 1076.808594 357.746094 1076.132812 357.746094 1075.71875 357.332031 L 1060.082031 341.683594 C 1059.664062 341.269531 1059.664062 340.59375 1060.082031 340.175781 C 1060.496094 339.761719 1061.171875 339.761719 1061.585938 340.179688 Z M 1061.585938 340.179688 " fill-opacity="1" fill-rule="nonzero"/><path fill="#52d1a2" d="M 1060.910156 333.894531 L 1061.351562 334.394531 C 1062.148438 335.492188 1062.472656 336.691406 1062.3125 337.988281 C 1062.148438 339.289062 1061.515625 340.386719 1060.417969 341.273438 C 1059.316406 342.074219 1058.121094 342.394531 1056.824219 342.234375 C 1056.40625 342.183594 1055.996094 342.078125 1055.601562 341.917969 L 1055.023438 341.640625 C 1054.648438 341.425781 1054.300781 341.160156 1053.976562 340.839844 C 1053.019531 339.835938 1052.539062 338.679688 1052.535156 337.371094 C 1052.535156 336.066406 1053.011719 334.910156 1053.96875 333.902344 C 1054.976562 332.941406 1056.132812 332.460938 1057.4375 332.460938 C 1058.746094 332.457031 1059.902344 332.9375 1060.910156 333.894531 " fill-opacity="1" fill-rule="nonzero"/><path fill="#52d1a2" d="M 1031.460938 419.296875 L 1053.574219 418.722656 C 1054.160156 418.710938 1054.648438 419.171875 1054.664062 419.761719 C 1054.679688 420.347656 1054.214844 420.839844 1053.628906 420.855469 L 1031.515625 421.425781 C 1030.925781 421.441406 1030.4375 420.976562 1030.421875 420.390625 C 1030.40625 419.800781 1030.871094 419.3125 1031.460938 419.296875 Z M 1031.460938 419.296875 " fill-opacity="1" fill-rule="nonzero"/><g clip-path="url(#982677ecfd)"><path fill="#52d1a2" d="M 1026.433594 415.460938 L 1027.101562 415.488281 C 1028.449219 415.664062 1029.539062 416.257812 1030.371094 417.265625 C 1031.203125 418.277344 1031.5625 419.492188 1031.449219 420.902344 C 1031.273438 422.25 1030.679688 423.335938 1029.671875 424.171875 C 1029.347656 424.4375 1028.988281 424.660156 1028.601562 424.835938 L 1028 425.0625 C 1027.589844 425.191406 1027.15625 425.261719 1026.703125 425.273438 C 1025.3125 425.277344 1024.140625 424.828125 1023.195312 423.933594 C 1022.246094 423.035156 1021.734375 421.890625 1021.660156 420.503906 C 1021.660156 419.113281 1022.105469 417.941406 1023.003906 416.992188 C 1023.902344 416.046875 1025.046875 415.535156 1026.433594 415.460938 " fill-opacity="1" fill-rule="nonzero"/></g><path fill="#52d1a2" d="M 1059.890625 498.027344 L 1075.183594 482.046875 C 1075.589844 481.621094 1076.265625 481.605469 1076.691406 482.011719 C 1077.117188 482.417969 1077.128906 483.09375 1076.722656 483.519531 L 1061.429688 499.5 C 1061.023438 499.925781 1060.347656 499.941406 1059.921875 499.535156 C 1059.5 499.128906 1059.484375 498.453125 1059.890625 498.027344 Z M 1059.890625 498.027344 " fill-opacity="1" fill-rule="nonzero"/><path fill="#52d1a2" d="M 1053.621094 498.847656 L 1054.113281 498.394531 C 1055.195312 497.570312 1056.382812 497.222656 1057.683594 497.351562 C 1058.992188 497.488281 1060.097656 498.09375 1061.011719 499.175781 C 1061.835938 500.253906 1062.183594 501.445312 1062.054688 502.746094 C 1062.011719 503.164062 1061.914062 503.574219 1061.761719 503.972656 L 1061.496094 504.558594 C 1061.292969 504.9375 1061.035156 505.292969 1060.722656 505.621094 C 1059.738281 506.605469 1058.59375 507.109375 1057.289062 507.140625 C 1055.980469 507.171875 1054.8125 506.71875 1053.785156 505.785156 C 1052.800781 504.800781 1052.296875 503.65625 1052.265625 502.347656 C 1052.234375 501.042969 1052.6875 499.875 1053.621094 498.847656 " fill-opacity="1" fill-rule="nonzero"/><path fill="#52d1a2" d="M 1138.230469 529.460938 L 1138.242188 507.339844 C 1138.242188 506.75 1138.71875 506.273438 1139.308594 506.273438 C 1139.894531 506.273438 1140.371094 506.753906 1140.371094 507.339844 L 1140.359375 529.460938 C 1140.359375 530.050781 1139.882812 530.527344 1139.296875 530.527344 C 1138.707031 530.527344 1138.230469 530.050781 1138.230469 529.460938 Z M 1138.230469 529.460938 " fill-opacity="1" fill-rule="nonzero"/><g clip-path="url(#26d0a2e74b)"><path fill="#52d1a2" d="M 1134.265625 534.382812 L 1134.308594 533.71875 C 1134.519531 532.375 1135.140625 531.300781 1136.167969 530.496094 C 1137.207031 529.691406 1138.425781 529.363281 1139.832031 529.515625 C 1141.175781 529.726562 1142.25 530.347656 1143.054688 531.375 C 1143.3125 531.707031 1143.527344 532.070312 1143.691406 532.464844 L 1143.902344 533.070312 C 1144.019531 533.484375 1144.078125 533.921875 1144.082031 534.375 C 1144.046875 535.765625 1143.566406 536.921875 1142.644531 537.847656 C 1141.722656 538.769531 1140.566406 539.25 1139.175781 539.285156 C 1137.785156 539.253906 1136.628906 538.773438 1135.703125 537.851562 C 1134.78125 536.929688 1134.300781 535.773438 1134.265625 534.382812 " fill-opacity="1" fill-rule="nonzero"/></g><path fill="#52d1a2" d="M 1216.5625 498.648438 L 1200.734375 483.191406 C 1200.316406 482.78125 1200.308594 482.105469 1200.71875 481.6875 C 1201.128906 481.265625 1201.804688 481.257812 1202.222656 481.667969 L 1218.050781 497.125 C 1218.46875 497.535156 1218.476562 498.210938 1218.066406 498.632812 C 1217.65625 499.050781 1216.980469 499.058594 1216.5625 498.648438 Z M 1216.5625 498.648438 " fill-opacity="1" fill-rule="nonzero"/><path fill="#52d1a2" d="M 1217.3125 504.925781 L 1216.867188 504.429688 C 1216.054688 503.339844 1215.71875 502.148438 1215.863281 500.847656 C 1216.011719 499.542969 1216.628906 498.441406 1217.71875 497.539062 C 1218.808594 496.726562 1220 496.390625 1221.300781 496.535156 C 1221.71875 496.582031 1222.125 496.683594 1222.523438 496.835938 L 1223.105469 497.109375 C 1223.484375 497.316406 1223.835938 497.578125 1224.164062 497.894531 C 1225.132812 498.890625 1225.628906 500.039062 1225.644531 501.34375 C 1225.664062 502.652344 1225.199219 503.8125 1224.253906 504.835938 C 1223.257812 505.804688 1222.109375 506.300781 1220.800781 506.316406 C 1219.496094 506.335938 1218.332031 505.871094 1217.3125 504.925781 " fill-opacity="1" fill-rule="nonzero"/><path fill="#52d1a2" d="M 1247.023438 421.542969 L 1224.898438 421.65625 C 1224.3125 421.660156 1223.832031 421.1875 1223.828125 420.597656 C 1223.828125 420.011719 1224.300781 419.53125 1224.890625 419.527344 L 1247.011719 419.414062 C 1247.597656 419.410156 1248.078125 419.882812 1248.082031 420.472656 C 1248.085938 421.0625 1247.609375 421.539062 1247.023438 421.542969 Z M 1247.023438 421.542969 " fill-opacity="1" fill-rule="nonzero"/><path fill="#52d1a2" d="M 1251.964844 425.484375 L 1251.300781 425.441406 C 1249.957031 425.238281 1248.878906 424.625 1248.066406 423.597656 C 1247.257812 422.566406 1246.921875 421.347656 1247.066406 419.941406 C 1247.269531 418.597656 1247.882812 417.519531 1248.910156 416.707031 C 1249.242188 416.449219 1249.601562 416.234375 1249.992188 416.066406 L 1250.597656 415.851562 C 1251.015625 415.730469 1251.449219 415.671875 1251.902344 415.667969 C 1253.292969 415.691406 1254.453125 416.164062 1255.382812 417.082031 C 1256.3125 418 1256.796875 419.152344 1256.839844 420.542969 C 1256.816406 421.933594 1256.34375 423.09375 1255.425781 424.023438 C 1254.507812 424.953125 1253.355469 425.4375 1251.964844 425.484375 " fill-opacity="1" fill-rule="nonzero"/><path fill="#52d1a2" d="M 1218.371094 341.851562 L 1202.792969 357.558594 C 1202.378906 357.976562 1201.707031 357.976562 1201.289062 357.5625 C 1200.871094 357.148438 1200.867188 356.476562 1201.28125 356.058594 L 1216.859375 340.351562 C 1217.273438 339.933594 1217.949219 339.929688 1218.367188 340.347656 C 1218.785156 340.761719 1218.785156 341.433594 1218.371094 341.851562 Z M 1218.371094 341.851562 " fill-opacity="1" fill-rule="nonzero"/><path fill="#52d1a2" d="M 1224.65625 341.148438 L 1224.15625 341.589844 C 1223.058594 342.394531 1221.863281 342.722656 1220.566406 342.566406 C 1219.261719 342.410156 1218.164062 341.78125 1217.273438 340.6875 C 1216.46875 339.589844 1216.140625 338.394531 1216.292969 337.097656 C 1216.34375 336.679688 1216.449219 336.269531 1216.605469 335.875 L 1216.882812 335.296875 C 1217.09375 334.917969 1217.359375 334.566406 1217.675781 334.246094 C 1218.679688 333.28125 1219.832031 332.796875 1221.136719 332.789062 C 1222.445312 332.78125 1223.605469 333.253906 1224.617188 334.207031 C 1225.582031 335.210938 1226.066406 336.363281 1226.074219 337.671875 C 1226.082031 338.976562 1225.609375 340.136719 1224.65625 341.148438 " fill-opacity="1" fill-rule="nonzero"/><path fill="#52d1a2" d="M 1227.671875 419.730469 L 1226.859375 431.824219 C 1223.003906 456.1875 1211.722656 475.675781 1193.011719 490.28125 C 1174.171875 504.878906 1151.988281 510.796875 1126.460938 508.039062 C 1102.097656 504.183594 1082.609375 492.898438 1068.003906 474.191406 C 1063.320312 468.144531 1059.464844 461.554688 1056.4375 454.421875 L 1052.617188 443.421875 C 1050.519531 435.855469 1049.457031 427.957031 1049.433594 419.730469 C 1050.070312 394.484375 1058.769531 373.480469 1075.535156 356.714844 C 1092.300781 339.949219 1113.304688 331.25 1138.554688 330.613281 C 1163.800781 331.25 1184.804688 339.949219 1201.570312 356.714844 C 1218.335938 373.480469 1227.035156 394.484375 1227.671875 419.730469 " fill-opacity="1" fill-rule="nonzero"/><path fill="#0a335d" d="M 1141.066406 416.113281 C 1141.570312 416.324219 1141.898438 416.824219 1141.886719 417.371094 C 1141.488281 435.769531 1141.097656 453.992188 1142.585938 465.246094 C 1144.0625 476.394531 1147.332031 480.332031 1151.371094 482.515625 C 1155.589844 484.796875 1160.914062 485.289062 1165.933594 483.804688 C 1168.789062 482.960938 1171.539062 481.480469 1173.820312 479.617188 C 1175.558594 478.203125 1176.992188 476.585938 1177.996094 474.894531 C 1180.320312 470.972656 1180.433594 466.445312 1180.53125 461.488281 C 1180.542969 460.898438 1180.941406 460.386719 1181.511719 460.230469 C 1185.945312 459.015625 1190.085938 457.863281 1193.832031 454.804688 C 1194.53125 454.234375 1195.21875 453.597656 1195.886719 452.878906 C 1200.238281 448.222656 1203.933594 440.234375 1204.246094 433.804688 C 1204.554688 427.492188 1201.609375 422.554688 1198.394531 417.230469 C 1198.242188 416.984375 1198.179688 416.695312 1198.207031 416.40625 C 1198.472656 413.847656 1198.679688 411.675781 1198.234375 410.113281 C 1197.816406 408.652344 1196.785156 407.625 1195.425781 406.324219 C 1194.894531 405.816406 1194.875 404.972656 1195.382812 404.441406 C 1195.894531 403.910156 1196.734375 403.890625 1197.265625 404.402344 C 1198.546875 405.625 1200.148438 407.121094 1200.792969 409.386719 C 1201.410156 411.550781 1201.105469 414.308594 1200.859375 416.679688 L 1200.671875 415.855469 C 1203.832031 421.082031 1207.257812 426.691406 1206.90625 433.933594 C 1206.558594 441.0625 1202.5625 449.636719 1197.835938 454.699219 C 1197.082031 455.503906 1196.308594 456.222656 1195.519531 456.867188 C 1191.277344 460.332031 1186.597656 461.597656 1182.214844 462.796875 L 1183.195312 461.539062 C 1183.101562 466.367188 1183.027344 471.625 1180.289062 476.25 C 1179.101562 478.253906 1177.441406 480.101562 1175.507812 481.679688 C 1172.960938 483.757812 1169.894531 485.410156 1166.691406 486.359375 C 1161.050781 488.023438 1154.992188 487.503906 1150.101562 484.859375 C 1145.035156 482.117188 1141.484375 477.214844 1139.945312 465.597656 C 1138.421875 454.085938 1138.828125 435.609375 1139.222656 417.3125 L 1140.042969 418.574219 C 1139.363281 418.292969 1139.042969 417.511719 1139.324219 416.832031 C 1139.605469 416.152344 1140.386719 415.832031 1141.066406 416.113281 Z M 1141.066406 416.113281 " fill-opacity="1" fill-rule="nonzero"/><path fill="#0a335d" d="M 1192.136719 406.984375 C 1192.160156 406.757812 1192.238281 406.542969 1192.371094 406.355469 C 1194.523438 403.25 1196.472656 400.414062 1196.941406 396.285156 C 1197.421875 392.046875 1196.34375 386.472656 1193.726562 382.742188 C 1191.128906 379.039062 1186.9375 377.007812 1182.332031 374.816406 C 1181.9375 374.628906 1181.660156 374.261719 1181.589844 373.828125 C 1180.871094 369.488281 1180.195312 365.53125 1176.980469 361.886719 C 1173.71875 358.183594 1167.851562 354.804688 1162 354.527344 C 1161.945312 354.523438 1161.894531 354.523438 1161.839844 354.519531 C 1155.949219 354.300781 1149.949219 357.25 1146.453125 361.125 C 1143.066406 364.878906 1141.972656 369.574219 1141.59375 379.351562 C 1141.214844 389.089844 1141.542969 403.492188 1141.875 417.957031 C 1141.894531 418.695312 1141.3125 419.304688 1140.574219 419.320312 C 1139.839844 419.335938 1139.230469 418.753906 1139.214844 418.019531 C 1138.882812 403.589844 1138.546875 389.089844 1138.929688 379.246094 C 1139.3125 369.4375 1140.402344 363.859375 1144.476562 359.339844 C 1148.445312 354.941406 1155.183594 351.605469 1161.9375 351.859375 C 1162 351.859375 1162.066406 351.863281 1162.125 351.867188 C 1168.800781 352.183594 1175.316406 355.964844 1178.980469 360.125 C 1182.753906 364.410156 1183.507812 369.097656 1184.21875 373.394531 L 1183.476562 372.410156 C 1187.949219 374.539062 1192.839844 376.835938 1195.90625 381.210938 C 1198.957031 385.558594 1200.128906 391.8125 1199.589844 396.582031 C 1199.035156 401.460938 1196.691406 404.800781 1194.558594 407.875 L 1194.789062 407.242188 C 1194.71875 407.976562 1194.066406 408.511719 1193.335938 408.441406 C 1192.601562 408.371094 1192.066406 407.71875 1192.136719 406.984375 Z M 1192.136719 406.984375 " fill-opacity="1" fill-rule="nonzero"/><path fill="#0a335d" d="M 1152.441406 361.128906 C 1152.542969 360.433594 1153.167969 359.941406 1153.867188 359.996094 C 1154.566406 360.054688 1155.101562 360.644531 1155.089844 361.347656 L 1154.867188 374.082031 C 1154.863281 374.410156 1154.734375 374.726562 1154.511719 374.964844 L 1147.535156 382.472656 C 1147.03125 383.011719 1146.191406 383.042969 1145.652344 382.539062 C 1145.113281 382.039062 1145.082031 381.195312 1145.582031 380.660156 L 1152.5625 373.152344 L 1152.207031 374.035156 L 1152.425781 361.300781 L 1155.078125 361.519531 C 1154.96875 362.246094 1154.292969 362.75 1153.566406 362.640625 C 1152.835938 362.535156 1152.332031 361.859375 1152.441406 361.128906 Z M 1152.441406 361.128906 " fill-opacity="1" fill-rule="nonzero"/><path fill="#0a335d" d="M 1145.8125 418.472656 C 1145.882812 418.226562 1146.027344 418.003906 1146.222656 417.835938 L 1152.527344 412.425781 L 1152.0625 413.429688 L 1152.179688 389.566406 C 1152.183594 389.210938 1152.324219 388.875 1152.574219 388.625 L 1161.632812 379.664062 L 1161.238281 380.570312 L 1161.484375 372.390625 C 1161.507812 371.65625 1162.121094 371.078125 1162.855469 371.101562 C 1163.589844 371.125 1164.167969 371.738281 1164.148438 372.472656 L 1163.902344 380.648438 C 1163.890625 380.992188 1163.75 381.316406 1163.507812 381.554688 L 1154.449219 390.519531 L 1154.84375 389.578125 L 1154.726562 413.441406 C 1154.726562 413.828125 1154.554688 414.195312 1154.261719 414.449219 L 1147.957031 419.859375 L 1148.367188 419.226562 L 1148.363281 419.226562 C 1148.15625 419.929688 1147.417969 420.335938 1146.710938 420.125 C 1146.003906 419.917969 1145.601562 419.175781 1145.8125 418.472656 Z M 1145.8125 418.472656 " fill-opacity="1" fill-rule="nonzero"/><path fill="#0a335d" d="M 1171.480469 374.089844 C 1171.769531 373.546875 1172.390625 373.277344 1172.988281 373.429688 C 1173.582031 373.585938 1173.992188 374.125 1173.984375 374.738281 L 1173.863281 383.726562 C 1173.855469 384.082031 1173.710938 384.421875 1173.453125 384.667969 L 1162.441406 395.273438 C 1161.910156 395.785156 1161.070312 395.769531 1160.558594 395.238281 C 1160.046875 394.707031 1160.0625 393.863281 1160.59375 393.355469 L 1171.605469 382.75 L 1171.199219 383.6875 L 1171.320312 374.703125 L 1173.828125 375.347656 C 1173.476562 375.996094 1172.671875 376.242188 1172.023438 375.894531 C 1171.375 375.542969 1171.132812 374.738281 1171.480469 374.089844 Z M 1171.480469 374.089844 " fill-opacity="1" fill-rule="nonzero"/><path fill="#0a335d" d="M 1185.347656 386.71875 L 1187.035156 386.636719 L 1163.628906 407.800781 L 1164.066406 406.832031 L 1163.785156 424.917969 C 1163.785156 425.054688 1163.761719 425.195312 1163.714844 425.328125 L 1163.714844 425.324219 L 1163.714844 425.328125 C 1163.683594 425.421875 1163.644531 425.527344 1163.605469 425.640625 C 1163.167969 426.820312 1162.324219 427.851562 1160.066406 428.011719 C 1159.296875 428.0625 1158.328125 428.019531 1157.425781 427.980469 C 1156.363281 427.933594 1155.339844 427.890625 1154.480469 427.953125 C 1153.929688 427.992188 1153.542969 428.066406 1153.304688 428.160156 C 1153.066406 428.253906 1152.972656 428.351562 1152.886719 428.589844 C 1152.648438 429.21875 1152.660156 430.324219 1152.730469 432.550781 C 1152.738281 432.78125 1152.746094 432.996094 1152.753906 433.246094 C 1152.867188 437.101562 1152.925781 442.925781 1152.984375 448.726562 L 1152.550781 447.757812 L 1163.476562 457.757812 C 1163.746094 458.003906 1163.902344 458.347656 1163.910156 458.707031 L 1164.160156 468.347656 C 1164.179688 469.082031 1163.601562 469.695312 1162.867188 469.710938 C 1162.128906 469.730469 1161.519531 469.152344 1161.5 468.417969 L 1161.246094 458.777344 L 1161.679688 459.722656 L 1150.75 449.722656 C 1150.480469 449.472656 1150.324219 449.121094 1150.320312 448.753906 C 1150.261719 442.941406 1150.203125 437.148438 1150.089844 433.328125 C 1150.082031 433.085938 1150.074219 432.863281 1150.070312 432.632812 C 1150.007812 430.6875 1149.925781 428.910156 1150.386719 427.660156 C 1150.730469 426.734375 1151.367188 426.054688 1152.335938 425.679688 C 1152.945312 425.441406 1153.636719 425.339844 1154.292969 425.292969 C 1155.332031 425.222656 1156.519531 425.273438 1157.542969 425.320312 C 1158.5 425.363281 1159.296875 425.394531 1159.882812 425.351562 C 1161.023438 425.273438 1161.007812 424.980469 1161.109375 424.710938 C 1161.136719 424.640625 1161.160156 424.5625 1161.195312 424.46875 L 1161.191406 424.472656 L 1161.195312 424.46875 L 1161.125 424.875 L 1161.402344 406.789062 C 1161.410156 406.421875 1161.570312 406.070312 1161.84375 405.824219 L 1185.246094 384.660156 C 1185.71875 384.234375 1186.421875 384.199219 1186.933594 384.578125 C 1187.523438 385.015625 1187.648438 385.847656 1187.210938 386.441406 C 1186.773438 387.03125 1185.9375 387.15625 1185.347656 386.71875 Z M 1185.347656 386.71875 " fill-opacity="1" fill-rule="nonzero"/><path fill="#0a335d" d="M 1145.691406 458.644531 C 1145.34375 458.078125 1145.464844 457.339844 1145.976562 456.917969 C 1146.488281 456.496094 1147.234375 456.511719 1147.726562 456.960938 L 1154.09375 462.796875 C 1154.359375 463.039062 1154.515625 463.378906 1154.523438 463.742188 L 1154.863281 476 C 1154.882812 476.734375 1154.304688 477.347656 1153.570312 477.367188 C 1152.835938 477.386719 1152.222656 476.808594 1152.203125 476.074219 L 1151.863281 463.816406 L 1152.292969 464.761719 L 1145.925781 458.925781 L 1147.960938 457.246094 C 1148.34375 457.871094 1148.148438 458.691406 1147.523438 459.078125 C 1146.898438 459.464844 1146.078125 459.269531 1145.691406 458.644531 Z M 1145.691406 458.644531 " fill-opacity="1" fill-rule="nonzero"/><path fill="#0a335d" d="M 1182.113281 462.753906 C 1181.75 462.789062 1181.386719 462.667969 1181.109375 462.429688 L 1161.335938 445.058594 C 1161.132812 444.882812 1160.992188 444.648438 1160.925781 444.386719 C 1160.527344 442.832031 1159.976562 440.792969 1160.292969 439.214844 C 1160.703125 437.183594 1162.339844 436.242188 1164.710938 435.902344 C 1167.003906 435.570312 1170.523438 435.707031 1173.835938 435.824219 L 1172.882812 436.179688 L 1183.308594 426.53125 C 1183.847656 426.03125 1184.691406 426.066406 1185.191406 426.605469 C 1185.691406 427.144531 1185.65625 427.988281 1185.117188 428.488281 L 1174.691406 438.132812 C 1174.433594 438.375 1174.089844 438.5 1173.738281 438.488281 C 1170.308594 438.363281 1167.085938 438.25 1165.089844 438.539062 C 1163.175781 438.8125 1162.984375 439.347656 1162.90625 439.738281 C 1162.738281 440.585938 1163.042969 441.917969 1163.503906 443.730469 L 1163.09375 443.058594 L 1182.867188 460.425781 L 1181.867188 460.101562 C 1182.597656 460.03125 1183.246094 460.570312 1183.316406 461.304688 C 1183.382812 462.035156 1182.847656 462.683594 1182.113281 462.753906 Z M 1182.113281 462.753906 " fill-opacity="1" fill-rule="nonzero"/><path fill="#0a335d" d="M 1178.851562 449.324219 L 1177.535156 448.132812 L 1184.582031 448.15625 L 1183.699219 448.488281 L 1194.804688 438.730469 L 1194.351562 439.699219 L 1194.488281 433.796875 C 1194.503906 433.0625 1195.113281 432.480469 1195.847656 432.496094 C 1196.585938 432.511719 1197.167969 433.125 1197.148438 433.859375 L 1197.011719 439.761719 C 1197.003906 440.132812 1196.839844 440.484375 1196.5625 440.730469 L 1185.457031 450.488281 C 1185.210938 450.703125 1184.898438 450.824219 1184.570312 450.820312 L 1177.523438 450.796875 C 1176.84375 450.792969 1176.273438 450.277344 1176.203125 449.601562 C 1176.128906 448.871094 1176.660156 448.214844 1177.390625 448.140625 C 1178.121094 448.0625 1178.777344 448.59375 1178.851562 449.324219 Z M 1178.851562 449.324219 " fill-opacity="1" fill-rule="nonzero"/><path fill="#0a335d" d="M 1168.945312 419.035156 L 1168.742188 419.023438 L 1176.929688 418.828125 L 1175.628906 420.121094 L 1175.886719 411.246094 C 1175.898438 410.875 1176.0625 410.527344 1176.339844 410.28125 L 1186.996094 400.945312 L 1186.542969 401.988281 L 1186.367188 395.792969 C 1186.347656 395.058594 1186.925781 394.445312 1187.660156 394.425781 C 1188.394531 394.402344 1189.007812 394.980469 1189.027344 395.71875 L 1189.207031 401.910156 C 1189.21875 402.308594 1189.050781 402.6875 1188.753906 402.949219 L 1178.09375 412.285156 L 1178.550781 411.324219 L 1178.292969 420.199219 C 1178.269531 420.90625 1177.699219 421.472656 1176.992188 421.492188 L 1168.804688 421.683594 C 1168.738281 421.6875 1168.671875 421.683594 1168.601562 421.675781 C 1167.875 421.582031 1167.359375 420.914062 1167.453125 420.183594 C 1167.546875 419.453125 1168.214844 418.9375 1168.945312 419.035156 Z M 1168.945312 419.035156 " fill-opacity="1" fill-rule="nonzero"/><path fill="#0a335d" d="M 1170.953125 465.617188 L 1170.902344 459.914062 C 1170.894531 459.179688 1171.484375 458.578125 1172.21875 458.570312 C 1172.957031 458.566406 1173.558594 459.15625 1173.5625 459.890625 L 1173.617188 465.59375 C 1173.625 466.328125 1173.035156 466.929688 1172.296875 466.9375 C 1171.5625 466.945312 1170.960938 466.355469 1170.953125 465.617188 Z M 1170.953125 465.617188 " fill-opacity="1" fill-rule="nonzero"/><path fill="#0a335d" d="M 1172.410156 471.957031 C 1172.410156 475.316406 1169.6875 478.042969 1166.328125 478.042969 C 1162.96875 478.042969 1160.246094 475.316406 1160.246094 471.957031 C 1160.246094 468.601562 1162.96875 465.875 1166.328125 465.875 C 1169.6875 465.875 1172.410156 468.601562 1172.410156 471.957031 M 1169.746094 471.957031 C 1169.746094 470.070312 1168.214844 468.539062 1166.328125 468.539062 C 1164.441406 468.539062 1162.910156 470.070312 1162.910156 471.957031 C 1162.910156 473.847656 1164.441406 475.378906 1166.328125 475.378906 C 1168.214844 475.378906 1169.746094 473.847656 1169.746094 471.957031 Z M 1169.746094 471.957031 " fill-opacity="1" fill-rule="nonzero"/><path fill="#0a335d" d="M 1194.308594 423.503906 C 1194.308594 426.863281 1191.585938 429.589844 1188.226562 429.589844 C 1184.867188 429.589844 1182.144531 426.863281 1182.144531 423.503906 C 1182.144531 420.144531 1184.867188 417.421875 1188.226562 417.421875 C 1191.585938 417.421875 1194.308594 420.144531 1194.308594 423.503906 M 1191.648438 423.503906 C 1191.648438 421.617188 1190.117188 420.085938 1188.226562 420.085938 C 1186.339844 420.085938 1184.808594 421.617188 1184.808594 423.503906 C 1184.808594 425.394531 1186.339844 426.925781 1188.226562 426.925781 C 1190.117188 426.925781 1191.648438 425.394531 1191.648438 423.503906 Z M 1191.648438 423.503906 " fill-opacity="1" fill-rule="nonzero"/><path fill="#0a335d" d="M 1171.949219 368.207031 C 1171.949219 371.566406 1169.222656 374.292969 1165.863281 374.292969 C 1162.503906 374.292969 1159.78125 371.566406 1159.78125 368.207031 C 1159.78125 364.847656 1162.503906 362.125 1165.863281 362.125 C 1169.222656 362.125 1171.949219 364.847656 1171.949219 368.207031 M 1169.285156 368.207031 C 1169.285156 366.320312 1167.753906 364.789062 1165.863281 364.789062 C 1163.976562 364.789062 1162.445312 366.320312 1162.445312 368.207031 C 1162.445312 370.097656 1163.976562 371.628906 1165.863281 371.628906 C 1167.753906 371.628906 1169.285156 370.097656 1169.285156 368.207031 Z M 1169.285156 368.207031 " fill-opacity="1" fill-rule="nonzero"/><path fill="#0a335d" d="M 1137.699219 415.679688 C 1137.195312 415.890625 1136.867188 416.390625 1136.878906 416.9375 C 1137.277344 435.335938 1137.667969 453.558594 1136.179688 464.8125 C 1134.703125 475.960938 1131.433594 479.898438 1127.394531 482.082031 C 1123.175781 484.363281 1117.851562 484.855469 1112.828125 483.371094 C 1109.976562 482.527344 1107.226562 481.046875 1104.945312 479.183594 C 1103.207031 477.769531 1101.769531 476.152344 1100.769531 474.460938 C 1098.445312 470.539062 1098.328125 466.011719 1098.234375 461.054688 C 1098.222656 460.464844 1097.824219 459.953125 1097.253906 459.796875 C 1092.820312 458.582031 1088.679688 457.429688 1084.929688 454.371094 C 1084.234375 453.800781 1083.546875 453.164062 1082.878906 452.445312 C 1078.527344 447.792969 1074.832031 439.800781 1074.519531 433.371094 C 1074.210938 427.058594 1077.15625 422.121094 1080.371094 416.800781 C 1080.523438 416.550781 1080.585938 416.261719 1080.554688 415.972656 C 1080.292969 413.414062 1080.085938 411.242188 1080.53125 409.683594 C 1080.949219 408.21875 1081.980469 407.191406 1083.339844 405.890625 C 1083.871094 405.382812 1083.890625 404.539062 1083.382812 404.007812 C 1082.871094 403.476562 1082.03125 403.457031 1081.5 403.96875 C 1080.21875 405.191406 1078.617188 406.6875 1077.972656 408.953125 C 1077.355469 411.117188 1077.660156 413.875 1077.90625 416.246094 L 1078.09375 415.421875 C 1074.933594 420.648438 1071.507812 426.257812 1071.859375 433.5 C 1072.207031 440.628906 1076.203125 449.203125 1080.929688 454.265625 C 1081.683594 455.070312 1082.457031 455.789062 1083.246094 456.433594 C 1087.488281 459.898438 1092.167969 461.164062 1096.550781 462.367188 L 1095.570312 461.105469 C 1095.664062 465.933594 1095.738281 471.191406 1098.476562 475.816406 C 1099.664062 477.820312 1101.324219 479.667969 1103.257812 481.246094 L 1103.257812 481.25 C 1105.804688 483.324219 1108.871094 484.976562 1112.074219 485.925781 C 1117.714844 487.589844 1123.773438 487.070312 1128.664062 484.425781 C 1133.730469 481.683594 1137.28125 476.785156 1138.820312 465.164062 C 1140.34375 453.652344 1139.9375 435.175781 1139.542969 416.878906 L 1138.722656 418.140625 C 1139.402344 417.859375 1139.722656 417.078125 1139.441406 416.398438 C 1139.160156 415.71875 1138.378906 415.398438 1137.699219 415.679688 Z M 1137.699219 415.679688 " fill-opacity="1" fill-rule="nonzero"/><path fill="#0a335d" d="M 1086.628906 406.550781 C 1086.605469 406.324219 1086.527344 406.109375 1086.394531 405.921875 C 1084.242188 402.816406 1082.292969 399.980469 1081.824219 395.851562 C 1081.34375 391.613281 1082.421875 386.039062 1085.039062 382.308594 C 1087.636719 378.605469 1091.828125 376.574219 1096.433594 374.382812 C 1096.828125 374.195312 1097.105469 373.828125 1097.175781 373.398438 C 1097.894531 369.054688 1098.570312 365.101562 1101.785156 361.453125 C 1105.046875 357.75 1110.914062 354.371094 1116.765625 354.09375 C 1116.820312 354.089844 1116.871094 354.089844 1116.925781 354.085938 C 1122.816406 353.867188 1128.816406 356.816406 1132.3125 360.691406 C 1135.699219 364.445312 1136.792969 369.144531 1137.171875 378.917969 C 1137.550781 388.65625 1137.222656 403.058594 1136.886719 417.527344 C 1136.871094 418.261719 1137.453125 418.871094 1138.1875 418.886719 C 1138.925781 418.90625 1139.535156 418.320312 1139.550781 417.585938 C 1139.882812 403.15625 1140.214844 388.65625 1139.835938 378.8125 C 1139.453125 369.003906 1138.363281 363.425781 1134.289062 358.90625 C 1130.320312 354.507812 1123.582031 351.171875 1116.828125 351.425781 C 1116.765625 351.425781 1116.699219 351.429688 1116.640625 351.433594 C 1109.964844 351.75 1103.449219 355.53125 1099.785156 359.691406 C 1096.007812 363.976562 1095.257812 368.664062 1094.546875 372.960938 L 1095.289062 371.976562 C 1090.816406 374.105469 1085.925781 376.402344 1082.859375 380.777344 C 1079.808594 385.125 1078.636719 391.378906 1079.175781 396.152344 C 1079.730469 401.027344 1082.074219 404.367188 1084.207031 407.441406 L 1083.976562 406.808594 C 1084.046875 407.542969 1084.699219 408.078125 1085.429688 408.007812 C 1086.164062 407.9375 1086.699219 407.285156 1086.628906 406.550781 Z M 1086.628906 406.550781 " fill-opacity="1" fill-rule="nonzero"/><path fill="#0a335d" d="M 1126.324219 360.695312 C 1126.222656 360.003906 1125.597656 359.507812 1124.898438 359.5625 C 1124.199219 359.621094 1123.664062 360.210938 1123.675781 360.914062 L 1123.898438 373.648438 C 1123.902344 373.976562 1124.03125 374.292969 1124.253906 374.53125 L 1131.230469 382.039062 C 1131.734375 382.578125 1132.574219 382.609375 1133.113281 382.105469 C 1133.652344 381.605469 1133.683594 380.761719 1133.183594 380.226562 L 1126.203125 372.71875 L 1126.558594 373.601562 L 1126.339844 360.867188 L 1123.6875 361.085938 C 1123.796875 361.8125 1124.472656 362.316406 1125.199219 362.207031 C 1125.929688 362.101562 1126.429688 361.425781 1126.324219 360.695312 Z M 1126.324219 360.695312 " fill-opacity="1" fill-rule="nonzero"/><path fill="#0a335d" d="M 1132.953125 418.039062 C 1132.882812 417.792969 1132.738281 417.570312 1132.542969 417.402344 L 1126.238281 411.992188 L 1126.699219 412.996094 L 1126.585938 389.132812 C 1126.582031 388.777344 1126.441406 388.441406 1126.191406 388.191406 L 1117.132812 379.230469 L 1117.527344 380.136719 L 1117.28125 371.960938 C 1117.257812 371.222656 1116.644531 370.644531 1115.910156 370.667969 C 1115.175781 370.691406 1114.597656 371.304688 1114.617188 372.039062 L 1114.863281 380.214844 C 1114.875 380.558594 1115.015625 380.882812 1115.257812 381.121094 L 1124.316406 390.085938 L 1123.921875 389.144531 L 1124.039062 413.007812 C 1124.039062 413.394531 1124.207031 413.761719 1124.503906 414.015625 L 1130.808594 419.425781 L 1130.398438 418.792969 C 1130.609375 419.496094 1131.347656 419.902344 1132.054688 419.691406 C 1132.761719 419.484375 1133.164062 418.742188 1132.953125 418.039062 Z M 1132.953125 418.039062 " fill-opacity="1" fill-rule="nonzero"/><path fill="#0a335d" d="M 1107.285156 373.65625 C 1106.996094 373.117188 1106.371094 372.84375 1105.777344 372.996094 C 1105.183594 373.152344 1104.773438 373.691406 1104.78125 374.304688 L 1104.902344 383.292969 C 1104.910156 383.648438 1105.054688 383.988281 1105.3125 384.234375 L 1116.324219 394.839844 C 1116.851562 395.351562 1117.695312 395.335938 1118.207031 394.804688 C 1118.71875 394.273438 1118.699219 393.429688 1118.171875 392.921875 L 1107.160156 382.316406 L 1107.566406 383.257812 L 1107.445312 374.269531 L 1104.9375 374.917969 C 1105.289062 375.5625 1106.09375 375.808594 1106.742188 375.460938 C 1107.390625 375.113281 1107.632812 374.304688 1107.285156 373.65625 Z M 1107.285156 373.65625 " fill-opacity="1" fill-rule="nonzero"/><path fill="#0a335d" d="M 1093.417969 386.285156 L 1091.730469 386.203125 L 1115.136719 407.367188 L 1114.699219 406.398438 L 1114.980469 424.484375 C 1114.980469 424.621094 1115.003906 424.761719 1115.050781 424.894531 L 1115.046875 424.890625 L 1115.050781 424.890625 L 1115.050781 424.894531 C 1115.082031 424.988281 1115.121094 425.097656 1115.160156 425.207031 C 1115.597656 426.386719 1116.441406 427.417969 1118.695312 427.578125 C 1119.46875 427.632812 1120.4375 427.585938 1121.339844 427.546875 C 1122.402344 427.5 1123.425781 427.457031 1124.285156 427.519531 C 1124.835938 427.558594 1125.222656 427.632812 1125.460938 427.726562 C 1125.699219 427.820312 1125.792969 427.917969 1125.878906 428.15625 C 1126.117188 428.785156 1126.105469 429.890625 1126.035156 432.117188 C 1126.027344 432.347656 1126.019531 432.5625 1126.011719 432.8125 C 1125.898438 436.667969 1125.839844 442.492188 1125.78125 448.292969 L 1126.214844 447.324219 L 1115.285156 457.328125 C 1115.019531 457.570312 1114.863281 457.914062 1114.855469 458.273438 L 1114.601562 467.914062 C 1114.585938 468.648438 1115.164062 469.261719 1115.898438 469.28125 C 1116.636719 469.296875 1117.246094 468.71875 1117.265625 467.984375 L 1117.515625 458.34375 L 1117.085938 459.292969 L 1128.011719 449.289062 C 1128.285156 449.039062 1128.441406 448.6875 1128.445312 448.320312 C 1128.503906 442.507812 1128.558594 436.714844 1128.675781 432.894531 C 1128.683594 432.652344 1128.6875 432.429688 1128.695312 432.199219 C 1128.757812 430.253906 1128.839844 428.476562 1128.378906 427.226562 C 1128.035156 426.304688 1127.398438 425.621094 1126.429688 425.246094 C 1125.820312 425.007812 1125.125 424.90625 1124.472656 424.863281 C 1123.433594 424.789062 1122.246094 424.839844 1121.222656 424.886719 C 1120.265625 424.929688 1119.46875 424.960938 1118.882812 424.917969 C 1117.742188 424.839844 1117.757812 424.546875 1117.65625 424.277344 C 1117.628906 424.207031 1117.605469 424.128906 1117.570312 424.035156 L 1117.574219 424.039062 L 1117.570312 424.035156 L 1117.640625 424.441406 L 1117.359375 406.359375 C 1117.355469 405.988281 1117.195312 405.636719 1116.921875 405.390625 L 1093.519531 384.226562 C 1093.046875 383.800781 1092.34375 383.765625 1091.832031 384.144531 C 1091.242188 384.582031 1091.117188 385.414062 1091.554688 386.007812 C 1091.992188 386.597656 1092.828125 386.722656 1093.417969 386.285156 Z M 1093.417969 386.285156 " fill-opacity="1" fill-rule="nonzero"/><path fill="#0a335d" d="M 1133.074219 458.210938 C 1133.421875 457.644531 1133.300781 456.90625 1132.789062 456.484375 C 1132.277344 456.0625 1131.53125 456.082031 1131.039062 456.527344 L 1124.671875 462.363281 C 1124.40625 462.605469 1124.25 462.945312 1124.238281 463.308594 L 1123.902344 475.566406 C 1123.882812 476.300781 1124.460938 476.914062 1125.195312 476.933594 C 1125.929688 476.953125 1126.542969 476.375 1126.5625 475.640625 L 1126.902344 463.382812 L 1126.472656 464.328125 L 1132.839844 458.492188 L 1130.804688 456.8125 C 1130.421875 457.4375 1130.613281 458.257812 1131.242188 458.644531 C 1131.867188 459.03125 1132.6875 458.835938 1133.074219 458.210938 Z M 1133.074219 458.210938 " fill-opacity="1" fill-rule="nonzero"/><path fill="#0a335d" d="M 1096.652344 462.320312 C 1097.015625 462.355469 1097.378906 462.234375 1097.652344 461.996094 L 1117.429688 444.628906 C 1117.632812 444.449219 1117.773438 444.214844 1117.839844 443.953125 C 1118.238281 442.398438 1118.789062 440.359375 1118.46875 438.78125 C 1118.0625 436.75 1116.425781 435.808594 1114.054688 435.46875 C 1111.761719 435.136719 1108.242188 435.273438 1104.929688 435.390625 L 1105.882812 435.746094 L 1095.457031 426.097656 C 1094.917969 425.597656 1094.074219 425.632812 1093.574219 426.171875 C 1093.074219 426.710938 1093.109375 427.554688 1093.648438 428.054688 L 1104.074219 437.699219 C 1104.332031 437.941406 1104.675781 438.066406 1105.027344 438.054688 C 1108.453125 437.929688 1111.679688 437.816406 1113.675781 438.105469 C 1115.589844 438.378906 1115.78125 438.914062 1115.859375 439.304688 C 1116.027344 440.152344 1115.722656 441.484375 1115.257812 443.296875 L 1115.671875 442.625 L 1095.898438 459.992188 L 1096.898438 459.667969 C 1096.167969 459.601562 1095.515625 460.136719 1095.449219 460.871094 C 1095.382812 461.601562 1095.917969 462.25 1096.652344 462.320312 Z M 1096.652344 462.320312 " fill-opacity="1" fill-rule="nonzero"/><path fill="#0a335d" d="M 1099.914062 448.890625 L 1101.230469 447.699219 L 1094.183594 447.722656 L 1095.066406 448.054688 L 1083.960938 438.296875 L 1084.414062 439.265625 L 1084.277344 433.363281 C 1084.261719 432.628906 1083.652344 432.046875 1082.917969 432.0625 C 1082.179688 432.082031 1081.597656 432.691406 1081.617188 433.425781 L 1081.75 439.328125 C 1081.761719 439.699219 1081.925781 440.050781 1082.203125 440.296875 L 1093.308594 450.058594 C 1093.554688 450.269531 1093.867188 450.390625 1094.195312 450.386719 L 1101.242188 450.363281 C 1101.921875 450.359375 1102.492188 449.84375 1102.5625 449.167969 C 1102.636719 448.4375 1102.105469 447.78125 1101.375 447.707031 C 1100.644531 447.628906 1099.988281 448.160156 1099.914062 448.890625 Z M 1099.914062 448.890625 " fill-opacity="1" fill-rule="nonzero"/><path fill="#0a335d" d="M 1109.820312 418.601562 L 1110.023438 418.589844 L 1101.835938 418.394531 L 1103.136719 419.6875 L 1102.878906 410.8125 C 1102.867188 410.441406 1102.703125 410.09375 1102.425781 409.847656 L 1091.769531 400.515625 L 1092.222656 401.554688 L 1092.398438 395.359375 C 1092.417969 394.625 1091.839844 394.011719 1091.105469 393.992188 C 1090.371094 393.96875 1089.757812 394.550781 1089.734375 395.285156 L 1089.558594 401.476562 C 1089.546875 401.875 1089.714844 402.253906 1090.011719 402.515625 L 1100.667969 411.851562 L 1100.214844 410.890625 L 1100.472656 419.765625 C 1100.496094 420.472656 1101.066406 421.039062 1101.773438 421.058594 L 1109.960938 421.253906 C 1110.027344 421.253906 1110.09375 421.25 1110.164062 421.242188 C 1110.890625 421.148438 1111.40625 420.480469 1111.3125 419.75 C 1111.21875 419.019531 1110.550781 418.503906 1109.820312 418.601562 Z M 1109.820312 418.601562 " fill-opacity="1" fill-rule="nonzero"/><path fill="#0a335d" d="M 1107.8125 465.183594 L 1107.863281 459.480469 C 1107.871094 458.746094 1107.28125 458.144531 1106.546875 458.136719 C 1105.808594 458.132812 1105.207031 458.722656 1105.199219 459.457031 L 1105.148438 465.160156 C 1105.140625 465.894531 1105.730469 466.496094 1106.46875 466.503906 C 1107.203125 466.511719 1107.804688 465.921875 1107.8125 465.183594 Z M 1107.8125 465.183594 " fill-opacity="1" fill-rule="nonzero"/><path fill="#0a335d" d="M 1106.355469 471.527344 C 1106.355469 474.886719 1109.078125 477.609375 1112.4375 477.609375 C 1115.796875 477.609375 1118.519531 474.886719 1118.519531 471.527344 C 1118.519531 468.167969 1115.796875 465.441406 1112.4375 465.441406 C 1109.078125 465.441406 1106.355469 468.167969 1106.355469 471.527344 M 1109.019531 471.527344 C 1109.019531 469.636719 1110.546875 468.105469 1112.4375 468.105469 C 1114.324219 468.105469 1115.855469 469.636719 1115.855469 471.527344 C 1115.855469 473.414062 1114.324219 474.945312 1112.4375 474.945312 C 1110.546875 474.945312 1109.019531 473.414062 1109.019531 471.527344 Z M 1109.019531 471.527344 " fill-opacity="1" fill-rule="nonzero"/><path fill="#0a335d" d="M 1084.453125 423.070312 C 1084.453125 426.429688 1087.179688 429.15625 1090.539062 429.15625 C 1093.898438 429.15625 1096.621094 426.429688 1096.621094 423.070312 C 1096.621094 419.714844 1093.898438 416.988281 1090.539062 416.988281 C 1087.179688 416.988281 1084.453125 419.714844 1084.453125 423.070312 M 1087.117188 423.070312 C 1087.117188 421.183594 1088.648438 419.652344 1090.539062 419.652344 C 1092.425781 419.652344 1093.957031 421.183594 1093.957031 423.070312 C 1093.957031 424.960938 1092.425781 426.492188 1090.539062 426.492188 C 1088.648438 426.492188 1087.117188 424.960938 1087.117188 423.070312 Z M 1087.117188 423.070312 " fill-opacity="1" fill-rule="nonzero"/><path fill="#0a335d" d="M 1106.816406 367.773438 C 1106.816406 371.132812 1109.542969 373.859375 1112.898438 373.859375 C 1116.257812 373.859375 1118.984375 371.132812 1118.984375 367.773438 C 1118.984375 364.417969 1116.257812 361.691406 1112.898438 361.691406 C 1109.542969 361.691406 1106.816406 364.417969 1106.816406 367.773438 M 1109.480469 367.773438 C 1109.480469 365.886719 1111.011719 364.355469 1112.898438 364.355469 C 1114.789062 364.355469 1116.320312 365.886719 1116.320312 367.773438 C 1116.320312 369.664062 1114.789062 371.195312 1112.898438 371.195312 C 1111.011719 371.195312 1109.480469 369.664062 1109.480469 367.773438 Z M 1109.480469 367.773438 " fill-opacity="1" fill-rule="nonzero"/><g clip-path="url(#b2b7d24204)"><g clip-path="url(#d6c41891a2)"><g clip-path="url(#fc8c3920b5)"><path fill="#06101e" d="M 199.5625 599.304688 L 409.355469 206.21875 L 622.894531 320.1875 L 413.101562 713.273438 Z M 199.5625 599.304688 " fill-opacity="1" fill-rule="nonzero"/><path fill="#06101e" d="M 624.335938 320.957031 L 414.542969 714.042969 C 414.113281 714.851562 413.140625 715.148438 412.332031 714.714844 L 198.792969 600.75 C 197.984375 600.316406 197.6875 599.34375 198.121094 598.535156 L 407.910156 205.449219 C 408.34375 204.640625 409.316406 204.34375 410.125 204.777344 L 623.664062 318.742188 C 624.472656 319.175781 624.769531 320.148438 624.335938 320.957031 Z M 412.429688 711.0625 L 620.679688 320.859375 L 410.027344 208.433594 L 201.773438 598.632812 Z M 412.429688 711.0625 " fill-opacity="1" fill-rule="nonzero"/></g></g></g></svg>